Coordinates
version=1
nRows=15
nColumns=34
inDegrees=yes

Units are S.I. units (second, meters, Newtons, ...)
If the header above contains a line with 'inDegrees', this indicates whether rotational values are in degrees (yes) or radians (no).

endheader
time	pelvis_tilt	pelvis_list	pelvis_rotation	pelvis_tx	pelvis_ty	pelvis_tz	hip_flexion_r	hip_adduction_r	hip_rotation_r	knee_angle_r	ankle_angle_r	subtalar_angle_r	mtp_angle_r	hip_flexion_l	hip_adduction_l	hip_rotation_l	knee_angle_l	ankle_angle_l	subtalar_angle_l	mtp_angle_l	lumbar_extension	lumbar_bending	lumbar_rotation	arm_flex_r	arm_add_r	arm_rot_r	elbow_flex_r	pro_sup_r	arm_flex_l	arm_add_l	arm_rot_l	elbow_flex_l	pro_sup_l
      0.00000000	      6.79414189	     -1.89075828	     -1.07901634	      0.52368452	      0.92688747	     -0.13640425	     -1.24732241	     -2.74667089	     -9.95150567	      9.01303617	    -11.19428906	    -23.36080561	      0.00000000	     -1.83317897	     -7.75270998	     -1.60083826	     12.01956132	      9.66903989	      1.04447204	      0.00000000	     -8.69439059	      3.39356188	      3.03379612	     44.54520520	      2.56068191	     27.51516289	    104.11019486	     96.13889338	     49.61740592	     -4.70156102	     36.64178350	     80.10620954	     94.82166666
      0.01666670	      5.25591451	     -1.27534706	     -1.48067007	      0.52697938	      0.92235983	     -0.13506877	      0.99923313	     -2.87009682	     -8.77033353	      9.18578905	     -9.09039482	    -23.58000606	      0.00000000	      0.36724001	     -6.71046490	      0.01254284	     13.14172470	      9.38162067	      0.08034117	      0.00000000	     -7.24576095	      2.62010978	      3.27405254	     45.22853331	      4.82129514	     29.57414825	    108.52766085	     95.96996404	     52.33339618	     -3.42344437	     38.95832170	     86.02328521	     95.02546868
      0.03333330	      4.10076483	     -0.89725596	     -2.03976097	      0.52564702	      0.91963853	     -0.13453089	      2.38851849	     -3.17186302	     -9.98810122	      8.37347793	    -11.03240028	    -24.01533067	      0.00000000	      2.35226192	     -6.40540436	      0.21632947	     13.94731896	      7.90827506	     -1.10242813	      0.00000000	     -6.11783746	      1.99390131	      2.28158697	     45.58021536	      8.35793788	     35.73244050	    112.59778596	     96.50669885	     56.44791193	     -2.16920147	     41.42889409	     89.15423617	     95.21846637
      0.05000000	      4.02480019	     -0.77540543	     -2.10790924	      0.52540618	      0.92467087	     -0.13612787	      2.52268427	     -3.33904289	    -10.19461674	      8.00521924	    -12.32606578	    -24.71666929	      0.00000000	      2.48211948	     -6.11415781	      0.82352246	     13.83969748	      7.08266915	     -2.74337155	      0.00000000	     -6.39962933	      1.83747820	      1.18862974	     46.11958585	     10.68011364	     42.73360983	    114.48485787	     97.41640224	     60.79001781	     -0.29353354	     45.82446766	     92.05045473	     95.47763802
      0.06666670	      4.06035362	     -0.98049835	     -2.00704792	      0.52988554	      0.92412177	     -0.13707996	      2.16484402	     -3.08833914	    -10.38569228	      7.58691826	    -13.49038050	    -25.75322815	      0.00000000	      2.28913623	     -6.21354922	      1.41132933	     13.79751577	      6.74789346	     -3.91083991	      0.00000000	     -6.40626281	      2.29228511	      0.96170004	     45.79882463	     11.39420739	     43.65565983	    111.44453774	     97.92635290	     63.58785323	      2.58627549	     51.53191310	     96.83121298	     95.63200398
      0.08333330	      4.40650302	     -0.95399306	     -1.33012950	      0.53236035	      0.92590332	     -0.13759313	      1.21735088	     -2.96766606	    -10.29607198	      6.92157903	    -14.18493625	    -27.27030177	      0.00000000	      1.70085114	     -6.07708559	      2.21487942	     13.35512645	      6.44395328	     -5.10828077	      0.00000000	     -7.00771059	      2.30306273	      1.71774696	     46.46033174	     11.62773717	     42.89836996	    111.98398030	     98.34743852	     66.52302761	      6.41235178	     57.38331276	    100.43041704	     95.58113241
      0.10000000	      4.15787399	     -0.77946212	     -0.82958429	      0.52984880	      0.92780072	     -0.13870761	      1.20891856	     -3.11114506	    -10.02914806	      6.46229245	    -13.77959342	    -27.39558311	      0.00000000	      2.02544835	     -5.83203992	      2.67105359	     13.42936220	      6.76895743	     -5.53437334	      0.00000000	     -7.05506711	      2.47925773	      3.17782789	     47.54809621	     11.62724904	     43.31626881	    114.70494427	     98.48444741	     68.72873927	      9.61188184	     63.16074236	    104.39371233	     95.83528078
      0.11666670	      4.51794871	     -0.81214113	     -0.58836965	      0.53017797	      0.92466500	     -0.13762065	      0.65891075	     -3.01770447	     -9.73986474	      5.87555827	    -14.20307101	    -27.79799060	      0.00000000	      1.27384033	     -5.77567260	      3.12770412	     12.76033468	      6.60517690	     -5.65880220	      0.00000000	     -7.86623521	      2.22991634	      5.39822142	     49.71182888	     11.14109856	     43.72741104	    125.61913769	     99.00268773	     71.25419566	     14.93469330	     67.68314721	    107.13574713	     96.31186637
      0.13333330	      4.51730497	     -0.75439647	     -0.18776979	      0.53597876	      0.91933649	     -0.13855674	      0.11808617	     -3.03569658	     -9.81115534	      5.38238420	    -14.53216181	    -28.25575470	      0.00000000	      1.11238113	     -5.68411080	      3.56964321	     12.58446298	      6.38664319	     -6.11066755	      0.00000000	     -8.18153095	      2.08930862	      6.92922317	     52.67637158	     11.52187887	     46.47843970	    133.69754866	    100.01254564	     71.60357342	     19.30159829	     71.66445247	    110.68934981	     96.91684496
      0.15000000	      4.67873625	     -0.68283590	     -0.22533896	      0.53500127	      0.92035011	     -0.13854576	     -0.29026869	     -3.09244690	     -9.65568858	      5.20569814	    -14.47453584	    -28.73915971	      0.00000000	      0.85202218	     -5.56547906	      3.80220092	     12.65062178	      6.12756394	     -6.87881185	      0.00000000	     -8.93891437	      1.76912578	      7.92093615	     55.20705968	     12.17453676	     49.91094257	    140.74186622	    101.57946264	     72.06794888	     22.48626612	     75.63491600	    112.12813066	     97.70609331
      0.16666670	      4.93806405	     -0.65933936	     -0.34562894	      0.54266002	      0.92845809	     -0.13921514	     -1.37226715	     -3.04768848	     -9.72950824	      4.51985114	    -14.92192130	    -28.10814952	      0.00000000	     -0.13076115	     -5.46102396	      3.89621401	     11.81322277	      4.80777094	     -6.72545888	      0.00000000	     -9.16231589	      1.46464013	      8.02384362	     55.75925861	     13.23992579	     53.28802986	    147.73026115	    105.72587193	     71.92901921	     24.14492778	     79.90698558	    110.80201820	     98.97519415
      0.18333330	      4.96257990	     -0.67708537	     -0.40534859	      0.54715696	      0.93019406	     -0.13991578	     -2.03769921	     -2.96193137	    -10.00472694	      3.86245484	    -15.15327251	    -27.63627105	      0.00000000	     -0.99052272	     -5.39317338	      4.03738997	     10.94982350	      4.89614463	     -6.57647026	      0.00000000	     -8.83876818	      1.78742096	      7.22351113	     56.09149414	     14.81560181	     57.28082633	    150.00035077	    107.95939448	     71.82699997	     23.95613063	     82.02577272	    111.52409128	     99.42846126
      0.20000000	      5.11490151	     -0.76209275	     -0.53496972	      0.55017332	      0.93007618	     -0.13969399	     -2.60326182	     -2.83898630	    -10.12030432	      3.57138139	    -15.56991629	    -27.47418806	      0.00000000	     -1.86841906	     -5.42461471	      4.19824825	     10.10092017	      4.32359584	     -6.30496013	      0.00000000	     -8.19217786	      1.99118318	      6.50079066	     54.95740765	     15.39538910	     58.42038528	    150.00035077	    108.38785927	     71.05043441	     23.31140530	     82.81749585	    111.83821137	     99.49485882
      0.21666670	      5.04432645	     -0.86126402	     -0.60364542	      0.54915698	      0.92630787	     -0.13920075	     -2.74247007	     -2.72344374	    -10.17580190	      3.65887141	    -15.48601106	    -27.63540369	      0.00000000	     -2.06815143	     -5.48429475	      4.26617786	      9.69593825	      4.31595913	     -6.32560669	      0.00000000	     -7.84622028	      2.23375709	      6.08365912	     55.03115943	     15.31391593	     58.65793384	    150.00035077	    108.52321520	     71.49017094	     23.18889936	     82.49490379	    111.94618683	     99.48635708
      0.23333330	      5.00746571	     -0.79446394	     -0.53016467	      0.54595550	      0.93169740	     -0.14029010	     -2.74081426	     -2.74645290	    -10.41020265	      3.24407649	    -15.62134681	    -27.75508005	      0.00000000	     -2.09641670	     -5.36442281	      4.56078115	      9.44333866	      3.87928674	     -6.11184848	      0.00000000	     -7.92203661	      2.45542300	      5.85871338	     55.06341620	     14.69475430	     58.91815077	    150.00035077	    108.68148240	     71.78386781	     22.23948947	     82.40037748	    111.89430323	     99.48086969
